<svg width="20" height="20" viewBox="0 0 20 20" fill="none" xmlns="http://www.w3.org/2000/svg">
<path d="M11.75 11C11.75 10.6685 11.8817 10.3505 12.1161 10.1161C12.3505 9.8817 12.6685 9.75 13 9.75C13.3315 9.75 13.6495 9.8817 13.8839 10.1161C14.1183 10.3505 14.25 10.6685 14.25 11C14.25 11.3315 14.1183 11.6495 13.8839 11.8839C13.6495 12.1183 13.3315 12.25 13 12.25C12.6685 12.25 12.3505 12.1183 12.1161 11.8839C11.8817 11.6495 11.75 11.3315 11.75 11ZM20 10V20H0V10C0 4.5 4.5 0 10 0C15.5 0 20 4.5 20 10ZM2 10C2 14.41 5.59 18 10 18C14.41 18 18 14.41 18 10C18 9.21 17.88 8.45 17.67 7.74C15.7367 8.18911 13.7135 8.05124 11.859 7.34401C10.0046 6.63679 8.40326 5.39238 7.26 3.77C6.28 6.16 4.41 8.09 2.05 9.14C2 9.42 2 9.71 2 10ZM7 12.25C7.33152 12.25 7.64946 12.1183 7.88388 11.8839C8.1183 11.6495 8.25 11.3315 8.25 11C8.25 10.6685 8.1183 10.3505 7.88388 10.1161C7.64946 9.8817 7.33152 9.75 7 9.75C6.66848 9.75 6.35054 9.8817 6.11612 10.1161C5.8817 10.3505 5.75 10.6685 5.75 11C5.75 11.3315 5.8817 11.6495 6.11612 11.8839C6.35054 12.1183 6.66848 12.25 7 12.25Z" fill="black"/>
</svg>
