<svg width="46" height="20" viewBox="0 0 46 20" fill="none" xmlns="http://www.w3.org/2000/svg">
<path d="M33 9.75C32.6685 9.75 32.3505 9.8817 32.1161 10.1161C31.8817 10.3505 31.75 10.6685 31.75 11C31.75 11.3315 31.8817 11.6495 32.1161 11.8839C32.3505 12.1183 32.6685 12.25 33 12.25C33.1642 12.25 33.3267 12.2177 33.4784 12.1548C33.63 12.092 33.7678 12 33.8839 11.8839C34 11.7678 34.092 11.63 34.1548 11.4784C34.2177 11.3267 34.25 11.1642 34.25 11C34.25 10.8358 34.2177 10.6733 34.1548 10.5216C34.092 10.37 34 10.2322 33.8839 10.1161C33.7678 10 33.63 9.90797 33.4784 9.84515C33.3267 9.78233 33.1642 9.75 33 9.75ZM39 9.75C38.6685 9.75 38.3505 9.8817 38.1161 10.1161C37.8817 10.3505 37.75 10.6685 37.75 11C37.75 11.3315 37.8817 11.6495 38.1161 11.8839C38.3505 12.1183 38.6685 12.25 39 12.25C39.3315 12.25 39.6495 12.1183 39.8839 11.8839C40.1183 11.6495 40.25 11.3315 40.25 11C40.25 10.6685 40.1183 10.3505 39.8839 10.1161C39.6495 9.8817 39.3315 9.75 39 9.75ZM36 0C34.6868 0 33.3864 0.258658 32.1732 0.761205C30.9599 1.26375 29.8575 2.00035 28.9289 2.92893C27.0536 4.8043 26 7.34784 26 10C26 12.6522 27.0536 15.1957 28.9289 17.0711C29.8575 17.9997 30.9599 18.7362 32.1732 19.2388C33.3864 19.7413 34.6868 20 36 20C38.6522 20 41.1957 18.9464 43.0711 17.0711C44.9464 15.1957 46 12.6522 46 10C46 8.68678 45.7413 7.38642 45.2388 6.17317C44.7362 4.95991 43.9997 3.85752 43.0711 2.92893C42.1425 2.00035 41.0401 1.26375 39.8268 0.761205C38.6136 0.258658 37.3132 0 36 0V0ZM36 18C31.59 18 28 14.41 28 10C28 9.71 28 9.42 28.05 9.14C30.41 8.09 32.28 6.16 33.26 3.77C34.4033 5.39238 36.0046 6.63679 37.859 7.34401C39.7135 8.05124 41.7367 8.18911 43.67 7.74C43.88 8.45 44 9.21 44 10C44 14.41 40.41 18 36 18Z" fill="black"/>
<path d="M11.75 11C11.75 10.6685 11.8817 10.3505 12.1161 10.1161C12.3505 9.8817 12.6685 9.75 13 9.75C13.3315 9.75 13.6495 9.8817 13.8839 10.1161C14.1183 10.3505 14.25 10.6685 14.25 11C14.25 11.3315 14.1183 11.6495 13.8839 11.8839C13.6495 12.1183 13.3315 12.25 13 12.25C12.6685 12.25 12.3505 12.1183 12.1161 11.8839C11.8817 11.6495 11.75 11.3315 11.75 11ZM20 10V20H0V10C0 4.5 4.5 0 10 0C15.5 0 20 4.5 20 10ZM2 10C2 14.41 5.59 18 10 18C14.41 18 18 14.41 18 10C18 9.21 17.88 8.45 17.67 7.74C15.7367 8.18911 13.7135 8.05124 11.859 7.34401C10.0046 6.63679 8.40326 5.39238 7.26 3.77C6.28 6.16 4.41 8.09 2.05 9.14C2 9.42 2 9.71 2 10ZM7 12.25C7.33152 12.25 7.64946 12.1183 7.88388 11.8839C8.1183 11.6495 8.25 11.3315 8.25 11C8.25 10.6685 8.1183 10.3505 7.88388 10.1161C7.64946 9.8817 7.33152 9.75 7 9.75C6.66848 9.75 6.35054 9.8817 6.11612 10.1161C5.8817 10.3505 5.75 10.6685 5.75 11C5.75 11.3315 5.8817 11.6495 6.11612 11.8839C6.35054 12.1183 6.66848 12.25 7 12.25Z" fill="black"/>
</svg>
